<?xml version="1.0" encoding="UTF-8" standalone="no"?>
<!DOCTYPE svg PUBLIC "-//W3C//DTD SVG 1.1//EN" "http://www.w3.org/Graphics/SVG/1.1/DTD/svg11.dtd">
<svg width="100%" height="100%" viewBox="0 0 50 50" version="1.1" xmlns="http://www.w3.org/2000/svg" xmlns:xlink="http://www.w3.org/1999/xlink" xml:space="preserve" xmlns:serif="http://www.serif.com/" style="fill-rule:evenodd;clip-rule:evenodd;stroke-linejoin:round;stroke-miterlimit:2;">
    <g transform="matrix(1.10152,0,0,1.09507,-2.8997,-0.950859)">
        <path d="M27.706,6.558L45.694,37.713C45.968,38.188 46.112,38.726 46.112,39.275C46.112,39.824 45.968,40.362 45.694,40.837C45.42,41.313 45.025,41.707 44.55,41.981C44.075,42.256 43.536,42.4 42.987,42.4L7.012,42.4C6.464,42.4 5.925,42.256 5.45,41.981C4.975,41.707 4.58,41.313 4.306,40.837C4.032,40.362 3.888,39.824 3.888,39.275C3.888,38.726 4.032,38.188 4.306,37.713L22.294,6.558C23.496,4.475 26.502,4.475 27.706,6.558ZM25,10.204L8.817,38.233L41.183,38.233L25,10.204ZM25,31.25C25.552,31.25 26.082,31.47 26.473,31.86C26.864,32.251 27.083,32.781 27.083,33.333C27.083,33.886 26.864,34.416 26.473,34.807C26.082,35.197 25.552,35.417 25,35.417C24.448,35.417 23.918,35.197 23.527,34.807C23.136,34.416 22.917,33.886 22.917,33.333C22.917,32.781 23.136,32.251 23.527,31.86C23.918,31.47 24.448,31.25 25,31.25ZM25,16.667C25.552,16.667 26.082,16.886 26.473,17.277C26.864,17.668 27.083,18.198 27.083,18.75L27.083,27.083C27.083,27.636 26.864,28.166 26.473,28.557C26.082,28.947 25.552,29.167 25,29.167C24.448,29.167 23.918,28.947 23.527,28.557C23.136,28.166 22.917,27.636 22.917,27.083L22.917,18.75C22.917,18.198 23.136,17.668 23.527,17.277C23.918,16.886 24.448,16.667 25,16.667Z" style="fill:rgb(255,185,85);fill-rule:nonzero;"/>
    </g>
</svg>
