<?xml version="1.0" encoding="UTF-8" standalone="no"?>
<!DOCTYPE svg PUBLIC "-//W3C//DTD SVG 1.1//EN" "http://www.w3.org/Graphics/SVG/1.1/DTD/svg11.dtd">
<svg width="100%" height="100%" viewBox="0 0 50 50" version="1.1" xmlns="http://www.w3.org/2000/svg" xmlns:xlink="http://www.w3.org/1999/xlink" xml:space="preserve" xmlns:serif="http://www.serif.com/" style="fill-rule:evenodd;clip-rule:evenodd;stroke-linejoin:round;stroke-miterlimit:2;">
    <g transform="matrix(2.36175,0,0,2.36175,-5.7027,-5.70271)">
        <path d="M19,17.7L19,19.5C19,19.633 19.05,19.75 19.15,19.85C19.25,19.95 19.367,20 19.5,20C19.633,20 19.75,19.95 19.85,19.85C19.95,19.75 20,19.633 20,19.5L20,16.5C20,16.367 19.95,16.25 19.85,16.15C19.75,16.05 19.633,16 19.5,16L16.5,16C16.367,16 16.25,16.05 16.15,16.15C16.05,16.25 16,16.367 16,16.5C16,16.633 16.05,16.75 16.15,16.85C16.25,16.95 16.367,17 16.5,17L18.3,17L15.85,19.45C15.75,19.55 15.7,19.667 15.7,19.8C15.7,19.933 15.75,20.05 15.85,20.15C15.95,20.25 16.067,20.3 16.2,20.3C16.333,20.3 16.45,20.25 16.55,20.15L19,17.7ZM5,21C4.45,21 3.979,20.804 3.587,20.412C3.195,20.02 2.999,19.549 3,19L3,5C3,4.45 3.196,3.979 3.588,3.587C3.98,3.195 4.451,2.999 5,3L19,3C19.55,3 20.021,3.196 20.413,3.588C20.805,3.98 21.001,4.451 21,5L21,11.7C20.683,11.55 20.358,11.421 20.025,11.312C19.692,11.203 19.35,11.124 19,11.075L19,5L5,5L5,19L11.05,19C11.1,19.367 11.179,19.717 11.288,20.05C11.397,20.383 11.526,20.7 11.675,21L5,21ZM5,11L5,19L5,5L5,11.075L5,11ZM7,16C7,16.283 7.096,16.521 7.288,16.713C7.48,16.905 7.717,17.001 8,17L11.075,17C11.125,16.65 11.204,16.308 11.313,15.975C11.422,15.642 11.542,15.317 11.675,15L8,15C7.717,15 7.479,15.096 7.287,15.288C7.095,15.48 6.999,15.717 7,16ZM7,12C7,12.283 7.096,12.521 7.288,12.713C7.48,12.905 7.717,13.001 8,13L13.1,13C13.633,12.5 14.229,12.083 14.888,11.75C15.547,11.417 16.251,11.192 17,11.075C16.85,11.042 16.683,11.021 16.5,11.012C16.317,11.003 16.15,10.999 16,11L8,11C7.717,11 7.479,11.096 7.287,11.288C7.095,11.48 6.999,11.717 7,12ZM7,8C7,8.283 7.096,8.521 7.288,8.713C7.48,8.905 7.717,9.001 8,9L16,9C16.283,9 16.521,8.904 16.713,8.712C16.905,8.52 17.001,8.283 17,8C17,7.717 16.904,7.479 16.712,7.287C16.52,7.095 16.283,6.999 16,7L8,7C7.717,7 7.479,7.096 7.287,7.288C7.095,7.48 6.999,7.717 7,8ZM18,23C16.617,23 15.437,22.512 14.462,21.537C13.487,20.562 12.999,19.383 13,18C13,16.617 13.488,15.437 14.463,14.462C15.438,13.487 16.617,12.999 18,13C19.383,13 20.563,13.488 21.538,14.463C22.513,15.438 23.001,16.617 23,18C23,19.383 22.512,20.563 21.537,21.538C20.562,22.513 19.383,23.001 18,23Z" style="fill:rgb(41,24,0);fill-rule:nonzero;"/>
    </g>
</svg>
