<?xml version="1.0" encoding="UTF-8" standalone="no"?>
<!DOCTYPE svg PUBLIC "-//W3C//DTD SVG 1.1//EN" "http://www.w3.org/Graphics/SVG/1.1/DTD/svg11.dtd">
<svg width="100%" height="100%" viewBox="0 0 50 50" version="1.1" xmlns="http://www.w3.org/2000/svg" xmlns:xlink="http://www.w3.org/1999/xlink" xml:space="preserve" xmlns:serif="http://www.serif.com/" style="fill-rule:evenodd;clip-rule:evenodd;stroke-linejoin:round;stroke-miterlimit:2;">
    <g transform="matrix(1.2596,0,0,1.2596,-6.48996,-6.48995)">
        <path d="M6.25,35.417L6.25,14.583L10.417,14.583L10.417,22.917L18.75,22.917L18.75,14.583L22.917,14.583L22.917,35.417L18.75,35.417L18.75,27.083L10.417,27.083L10.417,35.417L6.25,35.417ZM27.083,35.417L27.083,27.083C27.083,25.938 27.492,24.956 28.308,24.14C29.125,23.323 30.106,22.915 31.25,22.917L39.583,22.917L39.583,18.75L27.083,18.75L27.083,14.583L39.583,14.583C40.729,14.583 41.71,14.992 42.527,15.808C43.344,16.625 43.751,17.606 43.75,18.75L43.75,22.917C43.75,24.063 43.342,25.044 42.525,25.86C41.708,26.677 40.728,27.085 39.583,27.083L31.25,27.083L31.25,31.25L43.75,31.25L43.75,35.417L27.083,35.417Z" style="fill:rgb(41,24,0);fill-rule:nonzero;"/>
    </g>
</svg>
