<?xml version="1.0" encoding="UTF-8" standalone="no"?>
<!DOCTYPE svg PUBLIC "-//W3C//DTD SVG 1.1//EN" "http://www.w3.org/Graphics/SVG/1.1/DTD/svg11.dtd">
<svg width="100%" height="100%" viewBox="0 0 50 50" version="1.1" xmlns="http://www.w3.org/2000/svg" xmlns:xlink="http://www.w3.org/1999/xlink" xml:space="preserve" xmlns:serif="http://www.serif.com/" style="fill-rule:evenodd;clip-rule:evenodd;stroke-linejoin:round;stroke-miterlimit:2;">
    <g transform="matrix(1.10152,0,0,1.09507,-2.8997,-0.950859)">
        <g transform="matrix(1.14351,0,0,1.15025,-3.25938,-5.05822)">
            <path d="M25,27.917L31.042,33.958C31.424,34.34 31.91,34.531 32.5,34.531C33.09,34.531 33.576,34.34 33.958,33.958C34.34,33.576 34.531,33.09 34.531,32.5C34.531,31.91 34.34,31.424 33.958,31.042L27.917,25L33.958,18.958C34.34,18.576 34.531,18.09 34.531,17.5C34.531,16.91 34.34,16.424 33.958,16.042C33.576,15.66 33.09,15.469 32.5,15.469C31.91,15.469 31.424,15.66 31.042,16.042L25,22.083L18.958,16.042C18.576,15.66 18.09,15.469 17.5,15.469C16.91,15.469 16.424,15.66 16.042,16.042C15.66,16.424 15.469,16.91 15.469,17.5C15.469,18.09 15.66,18.576 16.042,18.958L22.083,25L16.042,31.042C15.66,31.424 15.469,31.91 15.469,32.5C15.469,33.09 15.66,33.576 16.042,33.958C16.424,34.34 16.91,34.531 17.5,34.531C18.09,34.531 18.576,34.34 18.958,33.958L25,27.917ZM10.417,43.75C9.271,43.75 8.29,43.342 7.473,42.525C6.656,41.708 6.249,40.728 6.25,39.583L6.25,10.417C6.25,9.271 6.658,8.29 7.475,7.473C8.292,6.656 9.272,6.249 10.417,6.25L39.583,6.25C40.729,6.25 41.71,6.658 42.527,7.475C43.344,8.292 43.751,9.272 43.75,10.417L43.75,39.583C43.75,40.729 43.342,41.71 42.525,42.527C41.708,43.344 40.728,43.751 39.583,43.75L10.417,43.75ZM10.417,39.583L39.583,39.583L39.583,10.417L10.417,10.417L10.417,39.583Z" style="fill:rgb(186,26,26);fill-rule:nonzero;"/>
        </g>
    </g>
</svg>
