<?xml version="1.0" encoding="UTF-8" standalone="no"?>
<!DOCTYPE svg PUBLIC "-//W3C//DTD SVG 1.1//EN" "http://www.w3.org/Graphics/SVG/1.1/DTD/svg11.dtd">
<svg width="100%" height="100%" viewBox="0 0 52 50" version="1.1" xmlns="http://www.w3.org/2000/svg" xmlns:xlink="http://www.w3.org/1999/xlink" xml:space="preserve" xmlns:serif="http://www.serif.com/" style="fill-rule:evenodd;clip-rule:evenodd;stroke-linejoin:round;stroke-miterlimit:2;">
    <g transform="matrix(1.2596,0,0,1.2596,-6.48995,-6.48991)">
        <path d="M6.25,35.417L6.25,14.583L10.417,14.583L10.417,22.917L18.75,22.917L18.75,14.583L22.917,14.583L22.917,35.417L18.75,35.417L18.75,27.083L10.417,27.083L10.417,35.417L6.25,35.417ZM37.5,35.417L37.5,29.167L27.083,29.167L27.083,14.583L31.25,14.583L31.25,25L37.5,25L37.5,14.583L41.667,14.583L41.667,25L45.833,25L45.833,29.167L41.667,29.167L41.667,35.417L37.5,35.417Z" style="fill:rgb(41,24,0);fill-rule:nonzero;"/>
    </g>
</svg>
