<?xml version="1.0" encoding="UTF-8" standalone="no"?>
<!DOCTYPE svg PUBLIC "-//W3C//DTD SVG 1.1//EN" "http://www.w3.org/Graphics/SVG/1.1/DTD/svg11.dtd">
<svg width="100%" height="100%" viewBox="0 0 50 50" version="1.1" xmlns="http://www.w3.org/2000/svg" xmlns:xlink="http://www.w3.org/1999/xlink" xml:space="preserve" xmlns:serif="http://www.serif.com/" style="fill-rule:evenodd;clip-rule:evenodd;stroke-linejoin:round;stroke-miterlimit:2;">
    <g transform="matrix(2.36175,0,0,2.36175,-3.34096,-3.34096)">
        <path d="M12,17C13.383,17 14.563,16.512 15.538,15.537C16.513,14.562 17.001,13.383 17,12C17,10.617 16.512,9.437 15.537,8.462C14.562,7.487 13.383,6.999 12,7C10.617,7 9.437,7.488 8.462,8.463C7.487,9.438 6.999,10.617 7,12C7,13.383 7.488,14.563 8.463,15.538C9.438,16.513 10.617,17.001 12,17ZM12,22C10.617,22 9.317,21.737 8.1,21.212C6.883,20.687 5.825,19.974 4.925,19.075C4.025,18.175 3.313,17.117 2.788,15.9C2.263,14.683 2.001,13.383 2,12C2,10.617 2.263,9.317 2.788,8.1C3.313,6.883 4.026,5.825 4.925,4.925C5.825,4.025 6.883,3.313 8.1,2.788C9.317,2.263 10.617,2.001 12,2C13.383,2 14.683,2.263 15.9,2.788C17.117,3.313 18.175,4.026 19.075,4.925C19.975,5.825 20.688,6.883 21.213,8.1C21.738,9.317 22.001,10.617 22,12C22,13.383 21.737,14.683 21.212,15.9C20.687,17.117 19.974,18.175 19.075,19.075C18.175,19.975 17.117,20.688 15.9,21.213C14.683,21.738 13.383,22.001 12,22ZM12,20C14.233,20 16.125,19.225 17.675,17.675C19.225,16.125 20,14.233 20,12C20,9.767 19.225,7.875 17.675,6.325C16.125,4.775 14.233,4 12,4C9.767,4 7.875,4.775 6.325,6.325C4.775,7.875 4,9.767 4,12C4,14.233 4.775,16.125 6.325,17.675C7.875,19.225 9.767,20 12,20Z" style="fill:rgb(41,24,0);fill-rule:nonzero;"/>
    </g>
</svg>
