<?xml version="1.0" encoding="UTF-8" standalone="no"?>
<!DOCTYPE svg PUBLIC "-//W3C//DTD SVG 1.1//EN" "http://www.w3.org/Graphics/SVG/1.1/DTD/svg11.dtd">
<svg width="100%" height="100%" viewBox="0 0 50 50" version="1.1" xmlns="http://www.w3.org/2000/svg" xmlns:xlink="http://www.w3.org/1999/xlink" xml:space="preserve" xmlns:serif="http://www.serif.com/" style="fill-rule:evenodd;clip-rule:evenodd;stroke-linejoin:round;stroke-miterlimit:2;">
    <g transform="matrix(1.2596,0,0,1.2596,-6.48996,-6.48996)">
        <path d="M6.25,35.417L6.25,14.583L10.417,14.583L10.417,22.917L18.75,22.917L18.75,14.583L22.917,14.583L22.917,35.417L18.75,35.417L18.75,27.083L10.417,27.083L10.417,35.417L6.25,35.417ZM27.083,35.417L27.083,31.25L39.583,31.25L39.583,27.083L31.25,27.083L31.25,22.917L39.583,22.917L39.583,18.75L27.083,18.75L27.083,14.583L39.583,14.583C40.729,14.583 41.71,14.992 42.527,15.808C43.344,16.625 43.751,17.606 43.75,18.75L43.75,31.25C43.75,32.396 43.342,33.377 42.525,34.194C41.708,35.01 40.728,35.418 39.583,35.417L27.083,35.417Z" style="fill:rgb(41,24,0);fill-rule:nonzero;"/>
    </g>
</svg>
